Coordinates
version=1
nRows=10
nColumns=46
inDegrees=yes

Units are S.I. units (second, meters, Newtons, ...)
Angles are in degrees.

endheader
time	pelvis_tilt	pelvis_list	pelvis_rotation	pelvis_tx	pelvis_ty	pelvis_tz	bb_angle	bb_tx	bb_ty	bb_tz	hip_flexion_r	hip_adduction_r	hip_rotation_r	knee_angle_r	knee_angle_r_beta	ankle_angle_r	subtalar_angle_r	mtp_angle_r	crank_angle_r	hip_flexion_l	hip_adduction_l	hip_rotation_l	knee_angle_l	knee_angle_l_beta	ankle_angle_l	subtalar_angle_l	mtp_angle_l	crank_angle_l	lumbar_extension	lumbar_bending	lumbar_rotation	arm_flex_r	arm_add_r	arm_rot_r	elbow_flex_r	pro_sup_r	wrist_flex_r	wrist_dev_r	arm_flex_l	arm_add_l	arm_rot_l	elbow_flex_l	pro_sup_l	wrist_flex_l	wrist_dev_l
      5.00000000	    -40.95357768	      6.51356781	     -3.42287988	      0.37039299	      1.08103165	     -0.23274924	      0.00000000	      0.50000000	      0.00000000	      0.25000000	     57.74173099	     -8.07918120	     -1.02333637	     28.01167342	      0.48889593	     -9.34007577	      1.49717748	      0.00000000	      0.00000000	     69.18089152	     -2.15261236	     -5.13470567	     87.54315733	      1.52791633	    -23.49940910	    -17.02324679	      0.00000000	      0.00000000	    -55.48194521	     -4.38429594	     -0.92091743	     39.32595899	    -28.76718871	     15.92699092	    122.27686748	     55.05462274	      0.00000000	      0.00000000	     37.99873052	    -24.33509479	     11.38226230	    116.11022605	     54.17908773	      0.00000000	      0.00000000
      5.00500000	    -40.88370059	      7.49347437	     -2.19987480	      0.37040758	      1.07868930	     -0.23303268	      0.00000000	      0.50000000	      0.00000000	      0.25000000	     56.46079454	     -9.74426813	     -1.28086808	     26.14252870	      0.45627320	    -10.76753807	      2.14352819	      0.00000000	      0.00000000	     70.61642057	     -1.12210653	     -5.75305788	     89.86794221	      1.56849148	    -22.44027556	    -16.71768782	      0.00000000	      0.00000000	    -55.17548799	     -4.60186261	     -2.43892881	     38.57250321	    -29.33246831	     15.96896089	    122.16538237	     55.05103205	      0.00000000	      0.00000000	     38.21118853	    -24.42050978	     11.65478180	    115.91169132	     54.16500117	      0.00000000	      0.00000000
      5.01000000	    -40.77763543	      8.34630933	     -1.10775829	      0.37042718	      1.07633421	     -0.23314273	      0.00000000	      0.50000000	      0.00000000	      0.25000000	     55.08088888	    -11.21193688	     -1.63050150	     24.26228578	      0.42345677	    -12.24389067	      2.67664553	      0.00000000	      0.00000000	     72.01607237	     -0.40467662	     -6.40654984	     92.16830602	      1.60864041	    -21.08426202	    -15.90688907	      0.00000000	      0.00000000	    -54.79289144	     -4.81508907	     -3.79883775	     37.69326104	    -30.02265923	     16.11487829	    121.93785053	     55.04431836	      0.00000000	      0.00000000	     38.45312015	    -24.65428428	     12.06834328	    115.69164143	     54.16175100	      0.00000000	      0.00000000
      5.01500000	    -40.72552108	      8.98860930	     -0.07104283	      0.37028612	      1.07402422	     -0.23292516	      0.00000000	      0.50000000	      0.00000000	      0.25000000	     53.64277523	    -12.43160175	     -2.06838629	     22.33521637	      0.38982306	    -13.82838452	      3.02941609	      0.00000000	      0.00000000	     73.49909353	      0.11454432	     -6.82169652	     94.41593356	      1.64786891	    -19.47531935	    -14.72055929	      0.00000000	      0.00000000	    -54.36138307	     -5.04779426	     -4.91692678	     37.00709328	    -30.84353037	     16.20296518	    121.66703218	     55.01143473	      0.00000000	      0.00000000	     38.88671076	    -24.93051935	     12.84116695	    115.28370916	     54.15131188	      0.00000000	      0.00000000
      5.02000000	    -40.55806875	      9.38262733	      0.98830059	      0.37078773	      1.07245436	     -0.23305954	      0.00000000	      0.50000000	      0.00000000	      0.25000000	     51.81396193	    -13.52624755	     -2.84078731	     20.16088321	      0.35187379	    -15.59652203	      3.62491366	      0.00000000	      0.00000000	     74.81231759	      0.58945514	     -7.10583868	     96.44613867	      1.68330267	    -18.48445004	    -14.35879880	      0.00000000	      0.00000000	    -54.16350543	     -5.04661861	     -6.04883970	     36.25606054	    -31.25993257	     16.16483972	    121.30716582	     54.94888503	      0.00000000	      0.00000000	     39.02941737	    -24.92038167	     13.10128478	    115.06729998	     54.12526042	      0.00000000	      0.00000000
      5.02500000	    -40.51565956	      9.82401346	      2.03927528	      0.37050261	      1.07044757	     -0.23294233	      0.00000000	      0.50000000	      0.00000000	      0.25000000	     50.22384872	    -14.58370040	     -3.58096204	     18.18891812	      0.31745651	    -17.27674612	      3.83285079	      0.00000000	      0.00000000	     76.34346131	      1.02449453	     -7.41205672	     98.45919256	      1.71843709	    -17.18205331	    -13.45858428	      0.00000000	      0.00000000	    -53.71317702	     -5.19567258	     -7.15002464	     35.58644790	    -31.65757114	     16.00695846	    120.69371182	     54.82394864	      0.00000000	      0.00000000	     39.38515488	    -25.00995637	     13.70156589	    114.58497041	     54.08367147	      0.00000000	      0.00000000
      5.03000000	    -40.54412793	     10.28907033	      3.14545797	      0.37029118	      1.06865435	     -0.23297865	      0.00000000	      0.50000000	      0.00000000	      0.25000000	     48.79659127	    -15.72625941	     -4.49750590	     16.51814566	      0.28829603	    -18.89955491	      4.31734420	      0.00000000	      0.00000000	     77.91935495	      1.53579971	     -7.81282268	    100.23229624	      1.74938359	    -16.39664555	    -13.00519879	      0.00000000	      0.00000000	    -53.26449048	     -5.32623195	     -8.37245370	     34.90203568	    -31.89845742	     16.06728389	    120.19343097	     54.74790892	      0.00000000	      0.00000000	     39.59172614	    -24.95619044	     14.01535523	    114.26459279	     54.04456436	      0.00000000	      0.00000000
      5.03500000	    -40.50134182	     10.45028632	      4.12314975	      0.37012372	      1.06731051	     -0.23309960	      0.00000000	      0.50000000	      0.00000000	      0.25000000	     47.13997991	    -16.51962820	     -5.64795128	     14.67278819	      0.25608846	    -20.70099135	      4.70854549	      0.00000000	      0.00000000	     79.44014561	      1.83554216	     -7.99231448	    101.93990524	      1.77918699	    -15.53693791	    -12.52200576	      0.00000000	      0.00000000	    -52.84352500	     -5.30531460	     -9.36645125	     34.43715590	    -31.95858701	     16.09141225	    119.43048689	     54.61951557	      0.00000000	      0.00000000	     39.79305286	    -24.94274194	     14.42908945	    113.83190111	     53.99677370	      0.00000000	      0.00000000
      5.04000000	    -40.44264713	     10.63405241	      5.07500195	      0.36976201	      1.06637036	     -0.23296626	      0.00000000	      0.50000000	      0.00000000	      0.25000000	     45.50998283	    -17.27002343	     -6.88035110	     12.92299850	      0.22554887	    -22.56364433	      5.10664276	      0.00000000	      0.00000000	     80.90936254	      2.15309963	     -8.21029937	    103.42876890	      1.80517256	    -14.80289770	    -12.17432228	      0.00000000	      0.00000000	    -52.51001717	     -5.33950488	    -10.35212289	     34.16852167	    -31.77316544	     16.10377757	    118.52567409	     54.46531786	      0.00000000	      0.00000000	     40.17773458	    -25.04510907	     14.87230066	    113.33871841	     53.93893735	      0.00000000	      0.00000000
      5.04500000	    -40.32045710	     10.67067105	      6.00392697	      0.36994339	      1.06606033	     -0.23297793	      0.00000000	      0.50000000	      0.00000000	      0.25000000	     43.73364175	    -17.89369118	     -8.41104554	     11.15993171	      0.19477755	    -24.55825242	      5.73186058	      0.00000000	      0.00000000	     82.23041886	      2.44693245	     -8.34413219	    104.67758873	      1.82696858	    -14.37948980	    -12.06397266	      0.00000000	      0.00000000	    -52.27796964	     -5.23351272	    -11.26443458	     33.85169684	    -31.49477191	     16.14149279	    117.69806117	     54.33076475	      0.00000000	      0.00000000	     40.34443373	    -24.94367651	     15.11706979	    112.98506868	     53.88931463	      0.00000000	      0.00000000
